<svg width="50" height="62" viewBox="0 0 50 62" fill="none" xmlns="http://www.w3.org/2000/svg">
<path d="M41.1725 43.5731H13.5596C13.1701 43.5731 12.7966 43.4008 12.5212 43.0942C12.2458 42.7876 12.0911 42.3717 12.0911 41.9381V2.59807C12.0911 2.16444 12.2458 1.74858 12.5212 1.44195C12.7966 1.13533 13.1701 0.963074 13.5596 0.963074L41.1716 0.963074C41.5611 0.963074 41.9347 1.13533 42.2101 1.44195C42.4855 1.74858 42.6402 2.16444 42.6402 2.59807V41.9371C42.6403 42.1518 42.6025 42.3644 42.5288 42.5628C42.4551 42.7613 42.347 42.9416 42.2107 43.0935C42.0744 43.2454 41.9126 43.3659 41.7345 43.4482C41.5563 43.5305 41.3654 43.5729 41.1725 43.5731Z" fill="#AFE1B9"/>
<path d="M42.6405 2.59907V41.9371C42.6405 42.371 42.4857 42.7871 42.2101 43.0939C41.9345 43.4007 41.5608 43.5731 41.1711 43.5731H38.5276C38.9173 43.5731 39.2911 43.4007 39.5667 43.0939C39.8422 42.7871 39.9971 42.371 39.9971 41.9371V2.59907C39.9971 2.16518 39.8422 1.74906 39.5667 1.44225C39.2911 1.13544 38.9173 0.963074 38.5276 0.963074H41.1711C41.5608 0.963074 41.9345 1.13544 42.2101 1.44225C42.4857 1.74906 42.6405 2.16518 42.6405 2.59907Z" fill="#8CC285"/>
<path d="M32.9687 48.9061H5.35579C4.96629 48.9061 4.59276 48.7338 4.31735 48.4272C4.04193 48.1206 3.88721 47.7047 3.88721 47.2711V7.93108C3.88721 7.49745 4.04193 7.08158 4.31735 6.77496C4.59276 6.46834 4.96629 6.29608 5.35579 6.29608H32.9687C33.1615 6.29608 33.3525 6.33837 33.5307 6.42054C33.7089 6.5027 33.8708 6.62314 34.0071 6.77496C34.1435 6.92678 34.2517 7.10703 34.3255 7.30539C34.3993 7.50376 34.4373 7.71637 34.4373 7.93108V47.2701C34.4374 47.4849 34.3995 47.6976 34.3257 47.8961C34.252 48.0946 34.1438 48.2749 34.0075 48.4268C33.8711 48.5788 33.7091 48.6993 33.5309 48.7815C33.3527 48.8638 33.1616 48.9061 32.9687 48.9061Z" fill="#CCEBD3"/>
<path d="M34.444 7.93108V47.2711C34.444 47.4859 34.406 47.6987 34.3321 47.8971C34.2583 48.0956 34.15 48.276 34.0136 48.4279C33.8771 48.5798 33.7151 48.7003 33.5368 48.7825C33.3585 48.8648 33.1675 48.9071 32.9745 48.9071H30.384C30.7738 48.9071 31.1475 48.7347 31.4231 48.4279C31.6987 48.1211 31.8535 47.705 31.8535 47.2711V7.93108C31.8533 7.49736 31.6984 7.0815 31.4228 6.7749C31.1473 6.46831 30.7736 6.29608 30.384 6.29608H32.9745C33.3641 6.29608 33.7377 6.46831 34.0132 6.7749C34.2888 7.0815 34.4437 7.49736 34.444 7.93108Z" fill="#8CC285"/>
<path d="M46.2148 23.2847V54.5706C46.2148 55.6763 45.8203 56.7367 45.118 57.5186C44.4158 58.3004 43.4633 58.7396 42.4702 58.7396H4.06611C3.07288 58.7396 2.12032 58.3004 1.41792 57.5186C0.715519 56.7368 0.320795 55.6764 0.320557 54.5706V30.5816C0.320795 29.4759 0.715519 28.4155 1.41792 27.6337C2.12032 26.8518 3.07288 26.4126 4.06611 26.4126H21.275C21.9621 26.4125 22.6349 26.1935 23.2139 25.7816C23.7929 25.3696 24.254 24.7818 24.5427 24.0876L25.2325 22.4306C25.5213 21.7365 25.9823 21.1487 26.5613 20.7367C27.1403 20.3248 27.8131 20.1058 28.5002 20.1057H43.3603C43.7352 20.1055 44.1064 20.1876 44.4528 20.3473C44.7992 20.507 45.1139 20.741 45.379 21.0362C45.6441 21.3313 45.8544 21.6817 45.9978 22.0673C46.1412 22.453 46.2149 22.8663 46.2148 23.2836V23.2847Z" fill="#8CC285"/>
<path d="M46.2108 23.2856V54.5716C46.2108 55.6773 45.8163 56.7377 45.114 57.5195C44.4117 58.3014 43.4593 58.7406 42.4661 58.7406H39.749C40.7422 58.7406 41.6946 58.3014 42.3969 57.5195C43.0991 56.7377 43.4937 55.6773 43.4937 54.5716V23.2856C43.4938 22.8683 43.4201 22.4551 43.2767 22.0695C43.1333 21.684 42.9232 21.3336 42.6582 21.0385C42.3932 20.7434 42.0786 20.5093 41.7323 20.3495C41.386 20.1898 41.0148 20.1076 40.64 20.1076H43.3562C43.7311 20.1075 44.1024 20.1896 44.4488 20.3492C44.7951 20.5089 45.1099 20.743 45.375 21.0381C45.64 21.3333 45.8503 21.6837 45.9937 22.0693C46.1371 22.4549 46.2109 22.8682 46.2108 23.2856Z" fill="#41843A"/>
<path d="M46.2131 37.5252V54.5712C46.2131 55.6769 45.8186 56.7373 45.1163 57.5191C44.414 58.3009 43.4616 58.7402 42.4684 58.7402H23.6625C23.3313 58.0075 23.1593 57.1984 23.1604 56.3782V40.3882C23.1604 38.9926 23.6584 37.6542 24.5447 36.6674C25.4311 35.6806 26.6333 35.1262 27.8868 35.1262H30.5815L46.2131 37.5252Z" fill="#41843A"/>
<path d="M44.9478 61.64H30.5863C29.3327 61.64 28.1306 61.0856 27.2442 60.0988C26.3578 59.112 25.8599 57.7736 25.8599 56.378V40.394C25.8599 38.9984 26.3578 37.66 27.2442 36.6732C28.1306 35.6864 29.3327 35.132 30.5863 35.132H44.9478C46.2013 35.132 47.4035 35.6864 48.2899 36.6732C49.1763 37.66 49.6742 38.9984 49.6742 40.394V56.383C49.673 57.7777 49.1745 59.1148 48.2883 60.1006C47.4021 61.0863 46.2006 61.64 44.9478 61.64Z" fill="#FEB137"/>
<path d="M44.9471 35.1271H42.2524C42.8736 35.127 43.4886 35.2632 44.0625 35.5279C44.6363 35.7926 45.1576 36.1806 45.5967 36.6697C46.0357 37.1589 46.3839 37.7396 46.6212 38.3787C46.8585 39.0178 46.9803 39.7026 46.9797 40.3941V56.3831C46.9797 57.7787 46.4818 59.1171 45.5954 60.1039C44.709 61.0907 43.5069 61.6451 42.2533 61.6451H44.948C46.2015 61.6451 47.4037 61.0907 48.2901 60.1039C49.1764 59.1171 49.6744 57.7787 49.6744 56.3831V40.3941C49.675 39.7026 49.5531 39.0178 49.3158 38.3787C49.0785 37.7396 48.7304 37.1589 48.2913 36.6697C47.8523 36.1806 47.3309 35.7926 46.7571 35.5279C46.1833 35.2632 45.5682 35.127 44.9471 35.1271Z" fill="#F69F16"/>
<path d="M18.409 40.1201H6.51036C6.15064 40.1201 5.80566 39.961 5.5513 39.6779C5.29695 39.3947 5.15405 39.0106 5.15405 38.6101V36.6371C5.15405 36.2366 5.29695 35.8526 5.5513 35.5694C5.80566 35.2862 6.15064 35.1271 6.51036 35.1271H18.409C18.7687 35.1271 19.1137 35.2862 19.3681 35.5694C19.6224 35.8526 19.7653 36.2366 19.7653 36.6371V38.6101C19.7653 39.0106 19.6224 39.3947 19.3681 39.6779C19.1137 39.961 18.7687 40.1201 18.409 40.1201Z" fill="#EAF6FF"/>
<path d="M19.7697 36.6362V38.6092C19.7697 39.0096 19.6268 39.3937 19.3724 39.6769C19.1181 39.9601 18.7731 40.1192 18.4134 40.1192H16.2307C16.5904 40.1192 16.9354 39.9601 17.1898 39.6769C17.4441 39.3937 17.587 39.0096 17.587 38.6092V36.6362C17.587 36.2357 17.4441 35.8516 17.1898 35.5685C16.9354 35.2853 16.5904 35.1262 16.2307 35.1262H18.4134C18.7731 35.1262 19.1181 35.2853 19.3724 35.5685C19.6268 35.8516 19.7697 36.2357 19.7697 36.6362Z" fill="#C8EFFE"/>
<path d="M14.2581 14.6563H9.01701C8.62037 14.6563 8.23998 14.4809 7.95952 14.1687C7.67905 13.8564 7.52148 13.4329 7.52148 12.9913C7.52148 12.5498 7.67905 12.1263 7.95952 11.814C8.23998 11.5018 8.62037 11.3264 9.01701 11.3264H14.2581C14.6547 11.3264 15.0351 11.5018 15.3156 11.814C15.5961 12.1263 15.7536 12.5498 15.7536 12.9913C15.7536 13.4329 15.5961 13.8564 15.3156 14.1687C15.0351 14.4809 14.6547 14.6563 14.2581 14.6563Z" fill="#8CC285"/>
<path d="M15.7503 12.9914C15.7503 13.4328 15.5928 13.8561 15.3126 14.1683C15.0323 14.4806 14.6521 14.6561 14.2556 14.6564H12.0308C12.4274 14.6564 12.8078 14.4809 13.0882 14.1687C13.3687 13.8564 13.5263 13.4329 13.5263 12.9914C13.5263 12.5498 13.3687 12.1263 13.0882 11.814C12.8078 11.5018 12.4274 11.3264 12.0308 11.3264H14.2547C14.6514 11.3264 15.0318 11.5018 15.3122 11.814C15.5927 12.1263 15.7503 12.5498 15.7503 12.9914Z" fill="#79AE72"/>
<path d="M29.2069 13.9059H18.7876C18.6774 13.91 18.5675 13.8893 18.4645 13.8451C18.3616 13.8009 18.2677 13.7341 18.1884 13.6487C18.1091 13.5633 18.046 13.461 18.0029 13.3479C17.9599 13.2348 17.9377 13.1132 17.9377 12.9904C17.9377 12.8676 17.9599 12.746 18.0029 12.6329C18.046 12.5198 18.1091 12.4175 18.1884 12.3321C18.2677 12.2467 18.3616 12.1799 18.4645 12.1357C18.5675 12.0915 18.6774 12.0708 18.7876 12.0749H29.2069C29.3172 12.0708 29.4271 12.0915 29.53 12.1357C29.633 12.1799 29.7269 12.2467 29.8062 12.3321C29.8855 12.4175 29.9485 12.5198 29.9916 12.6329C30.0347 12.746 30.0569 12.8676 30.0569 12.9904C30.0569 13.1132 30.0347 13.2348 29.9916 13.3479C29.9485 13.461 29.8855 13.5633 29.8062 13.6487C29.7269 13.7341 29.633 13.8009 29.53 13.8451C29.4271 13.8893 29.3172 13.91 29.2069 13.9059ZM21.3808 19.1059H14.5543C14.341 19.098 14.1387 18.9982 13.9902 18.8273C13.8418 18.6565 13.7588 18.4281 13.7588 18.1904C13.7588 17.9527 13.8418 17.7243 13.9902 17.5535C14.1387 17.3826 14.341 17.2828 14.5543 17.2749H21.3808C21.5942 17.2828 21.7965 17.3826 21.9449 17.5535C22.0934 17.7243 22.1764 17.9527 22.1764 18.1904C22.1764 18.4281 22.0934 18.6565 21.9449 18.8273C21.7965 18.9982 21.5942 19.098 21.3808 19.1059ZM10.6651 19.1059H8.3414C8.12801 19.098 7.92572 18.9982 7.77727 18.8273C7.62881 18.6565 7.54582 18.4281 7.54582 18.1904C7.54582 17.9527 7.62881 17.7243 7.77727 17.5535C7.92572 17.3826 8.12801 17.2828 8.3414 17.2749H10.666C10.8794 17.2828 11.0817 17.3826 11.2301 17.5535C11.3786 17.7243 11.4616 17.9527 11.4616 18.1904C11.4616 18.4281 11.3786 18.6565 11.2301 18.8273C11.0817 18.9982 10.8785 19.098 10.6651 19.1059ZM21.3808 22.8389H8.3414C8.23112 22.843 8.12124 22.8223 8.01829 22.7781C7.91534 22.7339 7.82142 22.6671 7.74212 22.5817C7.66283 22.4963 7.59977 22.394 7.55671 22.2809C7.51364 22.1678 7.49146 22.0462 7.49146 21.9234C7.49146 21.8006 7.51364 21.679 7.55671 21.5659C7.59977 21.4528 7.66283 21.3505 7.74212 21.2651C7.82142 21.1797 7.91534 21.1129 8.01829 21.0687C8.12124 21.0245 8.23112 21.0038 8.3414 21.0079H21.3817C21.492 21.0038 21.6018 21.0245 21.7048 21.0687C21.8077 21.1129 21.9017 21.1797 21.981 21.2651C22.0602 21.3505 22.1233 21.4528 22.1664 21.5659C22.2094 21.679 22.2316 21.8006 22.2316 21.9234C22.2316 22.0462 22.2094 22.1678 22.1664 22.2809C22.1233 22.394 22.0602 22.4963 21.981 22.5817C21.9017 22.6671 21.8077 22.7339 21.7048 22.7781C21.6018 22.8223 21.4911 22.843 21.3808 22.8389Z" fill="#AFE1B9"/>
<path d="M43.7196 50.3314L39.4549 56.2484C39.2523 56.5295 38.9955 56.7564 38.7035 56.9123C38.4116 57.0682 38.0919 57.1492 37.7681 57.1492C37.4443 57.1492 37.1246 57.0682 36.8327 56.9123C36.5407 56.7564 36.2839 56.5295 36.0812 56.2484L31.8165 50.3314C31.5843 50.0013 31.4397 49.6056 31.3989 49.1889C31.358 48.7721 31.4227 48.351 31.5855 47.973C31.7484 47.595 32.0029 47.2753 32.3204 47.0499C32.6378 46.8244 33.0056 46.7023 33.3821 46.6974H34.0737C34.3291 46.6974 34.574 46.5844 34.7546 46.3834C34.9352 46.1823 35.0366 45.9097 35.0366 45.6254V40.8184C35.0366 40.5001 35.1502 40.1949 35.3523 39.9698C35.5545 39.7448 35.8286 39.6183 36.1145 39.6183H39.4199C39.7058 39.6183 39.9799 39.7448 40.1821 39.9698C40.3842 40.1949 40.4978 40.5001 40.4978 40.8184V45.6254C40.4978 45.9097 40.5992 46.1823 40.7798 46.3834C40.9604 46.5844 41.2053 46.6974 41.4607 46.6974H42.1523C42.5289 46.702 42.8969 46.8238 43.2147 47.0491C43.5324 47.2743 43.7872 47.5941 43.9502 47.9721C44.1133 48.3502 44.1781 48.7715 44.1373 49.1884C44.0966 49.6053 43.9519 50.0012 43.7196 50.3314Z" fill="#C8EFFE"/>
<path d="M43.7179 50.3304L39.4532 56.2474C39.2505 56.5286 38.9937 56.7555 38.7018 56.9114C38.4098 57.0673 38.0901 57.1482 37.7663 57.1482C37.4425 57.1482 37.1228 57.0673 36.8309 56.9114C36.5389 56.7555 36.2822 56.5286 36.0795 56.2474L35.8433 55.9194C36.1755 55.9289 36.5051 55.8527 36.8064 55.6965C37.1076 55.5403 37.3722 55.3086 37.5795 55.0194L41.0215 50.3284C41.2536 49.9984 41.3983 49.6026 41.4391 49.1859C41.4799 48.7692 41.4153 48.348 41.2524 47.9701C41.0896 47.5921 40.8351 47.2723 40.5176 47.0469C40.2001 46.8215 39.8324 46.6994 39.4559 46.6944H38.7642C38.5089 46.6944 38.264 46.5815 38.0834 46.3804C37.9028 46.1794 37.8014 45.9067 37.8014 45.6224V40.8154C37.8014 40.4971 37.6878 40.1919 37.4857 39.9669C37.2835 39.7418 37.0094 39.6154 36.7235 39.6154H39.4181C39.704 39.6154 39.9782 39.7418 40.1803 39.9669C40.3824 40.1919 40.496 40.4971 40.496 40.8154V45.6224C40.496 45.9067 40.5975 46.1794 40.778 46.3804C40.9586 46.5815 41.2035 46.6944 41.4589 46.6944H42.1505C42.5275 46.6987 42.8959 46.8205 43.2139 47.0459C43.5319 47.2712 43.7869 47.5912 43.9501 47.9696C44.1132 48.348 44.1779 48.7697 44.1369 49.1869C44.0958 49.6041 43.9507 50.0003 43.7179 50.3304Z" fill="#99E6FC"/>
</svg>
