<svg width="15" height="23" viewBox="0 0 15 23" fill="none" xmlns="http://www.w3.org/2000/svg">
<path d="M7.64382 22.6743C3.74843 22.6743 0.580078 19.5059 0.580078 15.6105V5.72131C0.580078 5.20137 1.00209 4.77953 1.52185 4.77953C2.04179 4.77953 2.4638 5.20137 2.4638 5.72131V15.6105C2.4638 18.4671 4.78729 20.7906 7.64382 20.7906C10.5004 20.7906 12.8238 18.4671 12.8238 15.6105V5.25033C12.8238 3.43265 11.3452 1.95404 9.52754 1.95404C7.70969 1.95404 6.23107 3.43265 6.23107 5.25033V14.6688C6.23107 15.4476 6.86482 16.0815 7.64382 16.0815C8.42282 16.0815 9.05657 15.4476 9.05657 14.6688V5.72131C9.05657 5.20137 9.47858 4.77953 9.99834 4.77953C10.5183 4.77953 10.9403 5.20137 10.9403 5.72131V14.6688C10.9403 16.4865 9.4615 17.9651 7.64382 17.9651C5.82614 17.9651 4.34735 16.4865 4.34735 14.6688V5.25033C4.34735 2.3938 6.67083 0.0703125 9.52754 0.0703125C12.3841 0.0703125 14.7076 2.3938 14.7076 5.25033V15.6105C14.7076 19.5059 11.5392 22.6743 7.64382 22.6743Z" fill="#2196F3"/>
</svg>
