<svg width="16" height="17" viewBox="0 0 16 17" fill="none" xmlns="http://www.w3.org/2000/svg">
<g clip-path="url(#clip0_2315_293625)">
<path fill-rule="evenodd" clip-rule="evenodd" d="M6.66927 3.16797C6.13884 3.16797 5.63013 3.37868 5.25506 3.75376C4.87998 4.12883 4.66927 4.63754 4.66927 5.16797H2.66927C2.31565 5.16797 1.97651 5.30844 1.72646 5.55849C1.47641 5.80854 1.33594 6.14768 1.33594 6.5013V13.168C1.33594 13.5216 1.47641 13.8607 1.72646 14.1108C1.97651 14.3608 2.31565 14.5013 2.66927 14.5013H13.3359C13.6896 14.5013 14.0287 14.3608 14.2787 14.1108C14.5288 13.8607 14.6693 13.5216 14.6693 13.168V6.5013C14.6693 6.14768 14.5288 5.80854 14.2787 5.55849C14.0287 5.30844 13.6896 5.16797 13.3359 5.16797H11.3359C11.3359 4.63754 11.1252 4.12883 10.7502 3.75376C10.3751 3.37868 9.86637 3.16797 9.33594 3.16797H6.66927ZM6.66927 4.5013C6.49246 4.5013 6.32289 4.57154 6.19787 4.69656C6.07284 4.82159 6.0026 4.99116 6.0026 5.16797H10.0026C10.0026 4.99116 9.93237 4.82159 9.80734 4.69656C9.68232 4.57154 9.51275 4.5013 9.33594 4.5013H6.66927ZM13.3359 6.5013V9.16797H2.66927V6.5013H13.3359ZM2.66927 10.5013V13.168H13.3359V10.5013H2.66927Z" fill="#41843A"/>
</g>
<defs>
<clipPath id="clip0_2315_293625">
<rect width="16" height="16" fill="white" transform="translate(0 0.5)"/>
</clipPath>
</defs>
</svg>
