<svg width="16" height="17" viewBox="0 0 16 17" fill="none" xmlns="http://www.w3.org/2000/svg">
<path d="M4 15.1654V3.16536C4 2.81174 4.14048 2.4726 4.39052 2.22256C4.64057 1.97251 4.97971 1.83203 5.33333 1.83203H10.6667C11.0203 1.83203 11.3594 1.97251 11.6095 2.22256C11.8595 2.4726 12 2.81174 12 3.16536V15.1654H4Z" stroke="#41843A" stroke-width="1.5" stroke-linecap="round" stroke-linejoin="round"/>
<path d="M4.0026 8.5H2.66927C2.31565 8.5 1.97651 8.64048 1.72646 8.89052C1.47641 9.14057 1.33594 9.47971 1.33594 9.83333V13.8333C1.33594 14.187 1.47641 14.5261 1.72646 14.7761C1.97651 15.0262 2.31565 15.1667 2.66927 15.1667H4.0026" stroke="#41843A" stroke-width="1.5" stroke-linecap="round" stroke-linejoin="round"/>
<path d="M12 6.5H13.3333C13.687 6.5 14.0261 6.64048 14.2761 6.89052C14.5262 7.14057 14.6667 7.47971 14.6667 7.83333V13.8333C14.6667 14.187 14.5262 14.5261 14.2761 14.7761C14.0261 15.0262 13.687 15.1667 13.3333 15.1667H12" stroke="#41843A" stroke-width="1.5" stroke-linecap="round" stroke-linejoin="round"/>
<path d="M6.66406 4.5H9.33073" stroke="#41843A" stroke-width="1.5" stroke-linecap="round" stroke-linejoin="round"/>
<path d="M6.66406 7.16797H9.33073" stroke="#41843A" stroke-width="1.5" stroke-linecap="round" stroke-linejoin="round"/>
<path d="M6.66406 9.83203H9.33073" stroke="#41843A" stroke-width="1.5" stroke-linecap="round" stroke-linejoin="round"/>
<path d="M6.66406 12.5H9.33073" stroke="#41843A" stroke-width="1.5" stroke-linecap="round" stroke-linejoin="round"/>
</svg>
