<svg width="16" height="17" viewBox="0 0 16 17" fill="none" xmlns="http://www.w3.org/2000/svg">
<path d="M7.62642 9.89902C8.00933 9.89902 8.31974 9.58861 8.31974 9.20571C8.31974 8.8228 8.00933 8.51239 7.62642 8.51239C7.24351 8.51239 6.93311 8.8228 6.93311 9.20571C6.93311 9.58861 7.24351 9.89902 7.62642 9.89902Z" stroke="#41843A" stroke-width="1.38663" stroke-linecap="round" stroke-linejoin="round"/>
<path d="M7.62642 5.04581C8.00933 5.04581 8.31974 4.7354 8.31974 4.3525C8.31974 3.96959 8.00933 3.65918 7.62642 3.65918C7.24351 3.65918 6.93311 3.96959 6.93311 4.3525C6.93311 4.7354 7.24351 5.04581 7.62642 5.04581Z" stroke="#41843A" stroke-width="1.38663" stroke-linecap="round" stroke-linejoin="round"/>
<path d="M7.62642 14.7522C8.00933 14.7522 8.31974 14.4418 8.31974 14.0589C8.31974 13.676 8.00933 13.3656 7.62642 13.3656C7.24351 13.3656 6.93311 13.676 6.93311 14.0589C6.93311 14.4418 7.24351 14.7522 7.62642 14.7522Z" stroke="#41843A" stroke-width="1.38663" stroke-linecap="round" stroke-linejoin="round"/>
</svg>
