<svg width="24" height="23" viewBox="0 0 24 23" fill="none" xmlns="http://www.w3.org/2000/svg">
<g clip-path="url(#clip0_7029_1059)">
<path d="M20.6532 2.65254C20.6532 1.96562 20.3803 1.30683 19.8946 0.821105C19.4088 0.335378 18.7501 0.0625 18.0631 0.0625L6.29023 0.0625C5.60331 0.0625 4.94453 0.335378 4.4588 0.821105C3.97307 1.30683 3.7002 1.96562 3.7002 2.65254V18.6637C3.70143 18.8507 3.77625 19.0296 3.90845 19.1618C4.04066 19.294 4.21961 19.3688 4.40657 19.3701H19.9468C20.1341 19.3701 20.3138 19.2956 20.4463 19.1632C20.5788 19.0307 20.6532 18.851 20.6532 18.6637V2.65254Z" fill="#ECEFF1"/>
<path d="M16.1768 10.8919H8.17127C7.98393 10.8919 7.80426 10.8174 7.67179 10.685C7.53932 10.5525 7.4649 10.3728 7.4649 10.1855C7.4649 9.99815 7.53932 9.81848 7.67179 9.68601C7.80426 9.55354 7.98393 9.47912 8.17127 9.47912H16.1768C16.3642 9.47912 16.5439 9.55354 16.6763 9.68601C16.8088 9.81848 16.8832 9.99815 16.8832 10.1855C16.8832 10.3728 16.8088 10.5525 16.6763 10.685C16.5439 10.8174 16.3642 10.8919 16.1768 10.8919ZM16.1768 8.06637H8.17127C7.98393 8.06637 7.80426 7.99195 7.67179 7.85948C7.53932 7.72701 7.4649 7.54734 7.4649 7.36C7.4649 7.17265 7.53932 6.99299 7.67179 6.86051C7.80426 6.72804 7.98393 6.65362 8.17127 6.65362H16.1768C16.3642 6.65362 16.5439 6.72804 16.6763 6.86051C16.8088 6.99299 16.8832 7.17265 16.8832 7.36C16.8832 7.54734 16.8088 7.72701 16.6763 7.85948C16.5439 7.99195 16.3642 8.06637 16.1768 8.06637ZM12.4095 5.24087H8.17127C7.98393 5.24087 7.80426 5.16645 7.67179 5.03398C7.53932 4.90151 7.4649 4.72184 7.4649 4.5345C7.4649 4.34716 7.53932 4.16749 7.67179 4.03502C7.80426 3.90255 7.98393 3.82813 8.17127 3.82812H12.4095C12.5969 3.82813 12.7765 3.90255 12.909 4.03502C13.0415 4.16749 13.1159 4.34716 13.1159 4.5345C13.1159 4.72184 13.0415 4.90151 12.909 5.03398C12.7765 5.16645 12.5969 5.24087 12.4095 5.24087ZM21.8278 13.2464H19.2321C18.8774 13.245 18.5317 13.3587 18.247 13.5704C17.9624 13.7822 17.7542 14.0807 17.6536 14.4209L16.8446 17.1164C16.6939 17.6184 16.2409 17.9556 15.7172 17.9556H8.63089C8.37742 17.9568 8.13045 17.8755 7.92712 17.7242C7.7238 17.5729 7.57514 17.3596 7.50351 17.1164L6.69448 14.4219C6.59426 14.0813 6.38614 13.7826 6.10145 13.5706C5.81676 13.3586 5.47091 13.2449 5.11597 13.2464H2.52028C1.61141 13.2464 0.87207 13.9858 0.87207 14.8947V20.0747C0.872569 20.7615 1.14561 21.42 1.63123 21.9056C2.11684 22.3912 2.77534 22.6643 3.46211 22.6648H20.886C21.5728 22.6643 22.2313 22.3912 22.7169 21.9056C23.2025 21.42 23.4755 20.7615 23.476 20.0747V14.8947C23.476 13.9858 22.7367 13.2464 21.8278 13.2464Z" fill="#2196F3"/>
</g>
<defs>
<clipPath id="clip0_7029_1059">
<rect width="22.604" height="22.604" fill="white" transform="translate(0.87207 0.0703125)"/>
</clipPath>
</defs>
</svg>
