<svg width="24" height="20" viewBox="0 0 24 20" fill="none" xmlns="http://www.w3.org/2000/svg">
<g clip-path="url(#clip0_7004_2951)">
<path d="M20.3093 11.6621V18.5851C20.3093 18.8351 20.2179 19.0515 20.0353 19.2342C19.8526 19.4169 19.6362 19.5082 19.3862 19.5082H13.8478V13.9698H10.1554V19.5082H4.61699C4.36699 19.5082 4.15064 19.4169 3.96795 19.2342C3.78526 19.0515 3.69391 18.8351 3.69391 18.5851V11.6621C3.69391 11.6525 3.69631 11.638 3.70112 11.6188C3.70593 11.5996 3.70833 11.5851 3.70833 11.5755L12.0016 4.73899L20.2949 11.5755C20.3045 11.5948 20.3093 11.6236 20.3093 11.6621ZM23.5256 10.6669L22.6314 11.7342C22.5545 11.8207 22.4535 11.8736 22.3285 11.8928H22.2853C22.1603 11.8928 22.0593 11.8592 21.9824 11.7919L12.0016 3.46976L2.02083 11.7919C1.90545 11.8688 1.79006 11.9025 1.67468 11.8928C1.54968 11.8736 1.44872 11.8207 1.37179 11.7342L0.477564 10.6669C0.400641 10.5707 0.366987 10.4577 0.376603 10.3279C0.386218 10.1981 0.439103 10.0948 0.535256 10.0178L10.9054 1.37842C11.2131 1.12842 11.5785 1.00342 12.0016 1.00342C12.4247 1.00342 12.7901 1.12842 13.0978 1.37842L16.617 4.32073V1.50823C16.617 1.37361 16.6603 1.26303 16.7468 1.17649C16.8333 1.08996 16.9439 1.04669 17.0785 1.04669H19.8478C19.9824 1.04669 20.0929 1.08996 20.1795 1.17649C20.266 1.26303 20.3093 1.37361 20.3093 1.50823V7.39284L23.4679 10.0178C23.5641 10.0948 23.617 10.1981 23.6266 10.3279C23.6362 10.4577 23.6026 10.5707 23.5256 10.6669Z" fill="#6E7887"/>
</g>
<defs>
<clipPath id="clip0_7004_2951">
<rect width="24" height="18.9231" fill="white" transform="translate(0 0.581543)"/>
</clipPath>
</defs>
</svg>
