<svg width="19" height="18" viewBox="0 0 19 18" fill="none" xmlns="http://www.w3.org/2000/svg">
<g clip-path="url(#clip0_1992_267897)">
<path fill-rule="evenodd" clip-rule="evenodd" d="M1.23438 16C1.23438 17.1046 2.1298 18 3.23438 18H17.2344C18.339 18 19.2344 17.1046 19.2344 16V5.82843C19.2344 5.298 19.0237 4.78929 18.6486 4.41421L14.8202 0.58579C14.4451 0.21071 13.9364 0 13.406 0H3.23438C2.1298 0 1.23438 0.89543 1.23438 2V16ZM3.23438 2V16H5.23438V13C5.23438 11.8954 6.12981 11 7.23438 11H13.2344C14.339 11 15.2344 11.8954 15.2344 13V16H17.2344V5.82843L14.2344 2.82843V5C14.2344 6.10457 13.339 7 12.2344 7H7.23438C6.12981 7 5.23438 6.10457 5.23438 5V2H3.23438ZM7.23438 2V5H12.2344V2H7.23438ZM13.2344 16V13H7.23438V16H13.2344Z" fill="black"/>
</g>
<defs>
<clipPath id="clip0_1992_267897">
<rect width="18" height="18" fill="white" transform="translate(0.734375)"/>
</clipPath>
</defs>
</svg>
