<svg width="16" height="17" viewBox="0 0 16 17" fill="none" xmlns="http://www.w3.org/2000/svg">
<path d="M13.6574 2.84305C10.5331 -0.280843 5.46764 -0.281191 2.34305 2.84305C-0.781191 5.96729 -0.780843 11.0328 2.34305 14.1574C5.46729 17.2809 10.5328 17.2813 13.6574 14.1574C16.7813 11.0328 16.7809 5.96764 13.6574 2.84305ZM9.04337 11.9786C9.04337 12.2553 8.93343 12.5207 8.73774 12.7164C8.54204 12.9121 8.27662 13.0221 7.99987 13.0221C7.72312 13.0221 7.4577 12.9121 7.262 12.7164C7.06631 12.5207 6.95637 12.2553 6.95637 11.9786V7.80455C6.95637 7.5278 7.06631 7.26238 7.262 7.06668C7.4577 6.87099 7.72312 6.76105 7.99987 6.76105C8.27662 6.76105 8.54204 6.87099 8.73774 7.06668C8.93343 7.26238 9.04337 7.5278 9.04337 7.80455V11.9786ZM7.98144 6.02086C7.38038 6.02086 6.97967 5.59511 6.9922 5.06953C6.97967 4.51857 7.38038 4.10569 7.99361 4.10569C8.60719 4.10569 8.99537 4.51891 9.00824 5.06953C9.00789 5.59511 8.60754 6.02086 7.98144 6.02086Z" fill="url(#paint0_linear_637_152052)"/>
<defs>
<linearGradient id="paint0_linear_637_152052" x1="16.0002" y1="0.500001" x2="-10.6401" y2="26.6123" gradientUnits="userSpaceOnUse">
<stop stop-color="#8CC285"/>
<stop offset="1" stop-color="#466143"/>
</linearGradient>
</defs>
</svg>
