<svg width="17" height="17" viewBox="0 0 17 17" fill="none" xmlns="http://www.w3.org/2000/svg">
<path d="M10.3307 1.99048L10.9856 1.33559C11.7595 0.561639 13.1065 0.561639 13.8805 1.33559L14.4088 1.86396C14.5995 2.05298 14.7508 2.27787 14.854 2.52566C14.9573 2.77345 15.0104 3.03924 15.0104 3.30769C15.0104 3.57613 14.9573 3.84192 14.854 4.08971C14.7508 4.3375 14.5995 4.56239 14.4088 4.75141L13.754 5.40629L10.3307 1.98303V1.99048ZM9.54186 2.77931L2.76233 9.55885C2.54651 9.77466 2.41256 10.0575 2.39023 10.3626L2.1893 12.543C2.16698 12.8184 2.26372 13.0863 2.45721 13.2872C2.63581 13.4658 2.86651 13.5626 3.11209 13.5626H3.19395L5.37442 13.3616C5.67953 13.3319 5.96233 13.1979 6.17814 12.9821L12.9577 6.20257L9.53442 2.77931H9.54186ZM16.5 15.9365C16.5 15.6314 16.247 15.3784 15.9419 15.3784H1.05814C0.753023 15.3784 0.5 15.6314 0.5 15.9365C0.5 16.2416 0.753023 16.4947 1.05814 16.4947H15.9419C16.247 16.4947 16.5 16.2416 16.5 15.9365Z" fill="#41843A"/>
</svg>
