<svg width="24" height="24" viewBox="0 0 24 24" fill="none" xmlns="http://www.w3.org/2000/svg">
<g clip-path="url(#clip0_7029_1038)">
<path d="M0.919922 9.2027L11.8037 16.1294C11.9281 16.2212 12.075 16.2664 12.2219 16.2664C12.3688 16.2664 12.5158 16.2212 12.6401 16.1294L23.5239 9.2027L12.6457 0.867485C12.5234 0.775999 12.3747 0.726562 12.2219 0.726562C12.0691 0.726562 11.9204 0.775999 11.7981 0.867485L0.919922 9.2027Z" fill="#64B5F6"/>
<path d="M19.2883 0.726562H5.1608C4.38237 0.726562 3.74805 1.36089 3.74805 2.13931V17.6795C3.74805 18.0695 4.0645 18.3859 4.45442 18.3859H19.9947C20.3846 18.3859 20.701 18.0695 20.701 17.6795V2.13931C20.701 1.36089 20.0681 0.726562 19.2883 0.726562Z" fill="#ECEFF1"/>
<path d="M12.6401 16.1298C12.5158 16.2216 12.3688 16.2668 12.2219 16.2668C12.075 16.2668 11.9281 16.2216 11.8037 16.1298L0.919922 9.20306V21.9178C0.919922 22.6976 1.55283 23.3305 2.33267 23.3305H22.1112C22.891 23.3305 23.5239 22.6976 23.5239 21.9178V9.20306L12.6401 16.1298Z" fill="#1E88E5"/>
<path d="M22.1112 23.3313H2.33267C1.54012 23.3313 0.919922 22.7111 0.919922 21.9186C0.919985 21.8077 0.946101 21.6984 0.996162 21.5995C1.04622 21.5006 1.11883 21.4149 1.20812 21.3492L11.8037 14.2855C11.9281 14.1936 12.075 14.1484 12.2219 14.1484C12.3688 14.1484 12.5158 14.1936 12.6401 14.2855L23.2357 21.3492C23.325 21.4149 23.3976 21.5006 23.4477 21.5995C23.4977 21.6984 23.5238 21.8077 23.5239 21.9186C23.5239 22.7111 22.9037 23.3313 22.1112 23.3313Z" fill="#2196F3"/>
<rect x="7.04492" y="4.49219" width="10.3602" height="1.1302" rx="0.565099" fill="#2196F3"/>
<rect x="7.04492" y="7.03513" width="10.3602" height="1.1302" rx="0.565099" fill="#2196F3"/>
<rect x="7.04492" y="9.57809" width="7.53466" height="1.1302" rx="0.565099" fill="#2196F3"/>
</g>
<defs>
<clipPath id="clip0_7029_1038">
<rect width="22.604" height="22.604" fill="white" transform="translate(0.927734 0.726562)"/>
</clipPath>
</defs>
</svg>
