<svg width="16" height="17" viewBox="0 0 16 17" fill="none" xmlns="http://www.w3.org/2000/svg">
<path d="M1.33594 5.16602L6.77922 8.97631C7.22 9.28486 7.44039 9.43913 7.68011 9.49889C7.89187 9.55167 8.11334 9.55167 8.3251 9.49889C8.56482 9.43913 8.78521 9.28486 9.22599 8.97631L14.6693 5.16602M4.53594 13.8327H11.4693C12.5894 13.8327 13.1494 13.8327 13.5773 13.6147C13.9536 13.4229 14.2595 13.117 14.4513 12.7407C14.6693 12.3128 14.6693 11.7528 14.6693 10.6327V6.36602C14.6693 5.24591 14.6693 4.68586 14.4513 4.25803C14.2595 3.88171 13.9536 3.57575 13.5773 3.384C13.1494 3.16602 12.5894 3.16602 11.4693 3.16602H4.53594C3.41583 3.16602 2.85578 3.16602 2.42796 3.384C2.05163 3.57575 1.74567 3.88171 1.55392 4.25803C1.33594 4.68586 1.33594 5.24591 1.33594 6.36602V10.6327C1.33594 11.7528 1.33594 12.3128 1.55392 12.7407C1.74567 13.117 2.05163 13.4229 2.42796 13.6147C2.85578 13.8327 3.41583 13.8327 4.53594 13.8327Z" stroke="#41843A" stroke-width="1.5" stroke-linecap="round" stroke-linejoin="round"/>
</svg>
