<svg width="16" height="17" viewBox="0 0 16 17" fill="none" xmlns="http://www.w3.org/2000/svg">
<g clip-path="url(#clip0_2315_293635)">
<path d="M9.05473 1.83203C9.40832 1.83211 9.74741 1.97263 9.9974 2.2227L12.9401 5.16536C13.1901 5.41535 13.3307 5.75444 13.3307 6.10803V13.832C13.3307 14.1857 13.1903 14.5248 12.9402 14.7748C12.6902 15.0249 12.351 15.1654 11.9974 15.1654H3.9974C3.64377 15.1654 3.30464 15.0249 3.05459 14.7748C2.80454 14.5248 2.66406 14.1857 2.66406 13.832V3.16536C2.66406 2.81174 2.80454 2.4726 3.05459 2.22256C3.30464 1.97251 3.64377 1.83203 3.9974 1.83203H9.05473ZM7.9974 3.16536H3.9974V13.832H11.9974V7.16536H8.9974C8.73218 7.16536 8.47783 7.06001 8.29029 6.87247C8.10275 6.68493 7.9974 6.43058 7.9974 6.16536V3.16536ZM7.76673 8.29803C7.79017 8.25762 7.82382 8.22408 7.8643 8.20076C7.90478 8.17744 7.95068 8.16517 7.9974 8.16517C8.04411 8.16517 8.09001 8.17744 8.13049 8.20076C8.17097 8.22408 8.20462 8.25762 8.22806 8.29803L8.82406 9.32136L9.98206 9.57203C10.0277 9.58192 10.0699 9.60361 10.1045 9.63493C10.1391 9.66625 10.1649 9.70611 10.1793 9.75051C10.1936 9.79492 10.1961 9.84232 10.1864 9.88798C10.1767 9.93364 10.1552 9.97595 10.1241 10.0107L9.3354 10.894L9.45406 12.0727C9.4587 12.1191 9.45111 12.1658 9.43205 12.2083C9.41299 12.2509 9.38313 12.2876 9.34543 12.315C9.30773 12.3424 9.26352 12.3594 9.21719 12.3644C9.17087 12.3694 9.12405 12.3621 9.0814 12.3434L7.9974 11.866L6.9134 12.3434C6.87072 12.3623 6.82382 12.3696 6.77739 12.3648C6.73097 12.3599 6.68664 12.3429 6.64885 12.3155C6.61105 12.2881 6.58111 12.2512 6.56202 12.2086C6.54293 12.166 6.53536 12.1191 6.54006 12.0727L6.66006 10.894L5.87073 10.0107C5.83956 9.97595 5.81806 9.93364 5.80838 9.88798C5.79869 9.84232 5.80116 9.79492 5.81554 9.75051C5.82991 9.70611 5.85569 9.66625 5.89029 9.63493C5.9249 9.60361 5.96712 9.58192 6.01273 9.57203L7.17073 9.32136L7.76673 8.29803ZM9.33073 3.44136V5.83203H11.7214L9.33073 3.44136Z" fill="#41843A"/>
</g>
<defs>
<clipPath id="clip0_2315_293635">
<rect width="16" height="16" fill="white" transform="translate(0 0.5)"/>
</clipPath>
</defs>
</svg>
