<svg width="20" height="21" viewBox="0 0 20 21" fill="none" xmlns="http://www.w3.org/2000/svg">
<path d="M5.31048 11.9716L11.7974 5.4847L15.0176 8.70486L8.53065 15.1918C7.72366 15.999 7.23046 16.4923 6.62324 16.8316C6.28454 17.0209 5.7708 17.1862 5.24508 17.3325C4.70444 17.483 4.08239 17.6311 3.48856 17.7725L3.48071 17.7743C3.26958 17.8246 3.04748 17.7618 2.89401 17.6083C2.74054 17.4548 2.67768 17.2327 2.72795 17.0216L2.72968 17.0143C2.87111 16.4203 3.01927 15.798 3.16977 15.2572C3.31606 14.7315 3.4814 14.2178 3.67066 13.8791C4.00997 13.2718 4.5033 12.7786 5.31048 11.9716Z" fill="#41843A"/>
<path d="M16.6274 7.09508L15.9015 7.82097L12.6813 4.60082L13.4072 3.87492C14.2964 2.9857 15.7381 2.9857 16.6274 3.87492C17.5166 4.76414 17.5166 6.20585 16.6274 7.09508Z" fill="#41843A"/>
<path d="M9.16927 16.1247C8.70903 16.1247 8.33594 16.4978 8.33594 16.958C8.33594 17.4182 8.70903 17.7913 9.16927 17.7913H14.1693C14.6295 17.7913 15.0026 17.4182 15.0026 16.958C15.0026 16.4978 14.6295 16.1247 14.1693 16.1247H9.16927Z" fill="#41843A"/>
</svg>
