<svg width="18" height="19" viewBox="0 0 18 19" fill="none" xmlns="http://www.w3.org/2000/svg">
<g clip-path="url(#clip0_1344_220199)">
<mask id="mask0_1344_220199" style="mask-type:luminance" maskUnits="userSpaceOnUse" x="-1" y="0" width="19" height="19">
<path d="M17.9922 0.5H-0.0078125V18.5H17.9922V0.5Z" fill="white"/>
</mask>
<g mask="url(#mask0_1344_220199)">
<path d="M9.23437 18.7412C4.27182 18.7412 0.234375 14.7038 0.234375 9.74121C0.234375 4.77865 4.27182 0.741211 9.23437 0.741211C14.1969 0.741211 18.2344 4.77865 18.2344 9.74121C18.2344 14.7038 14.1969 18.7412 9.23437 18.7412ZM9.23437 2.18625C5.06862 2.18625 1.67942 5.57545 1.67942 9.74121C1.67942 13.907 5.06862 17.2962 9.23437 17.2962C13.4001 17.2962 16.7893 13.907 16.7893 9.74121C16.7893 5.57545 13.4001 2.18625 9.23437 2.18625Z" fill="#212830"/>
<path d="M8.9915 10.3182C8.41578 10.3182 7.84007 10.0989 7.38106 9.66038C6.55813 8.87401 5.79706 7.47254 5.95091 6.1141C5.99169 5.75298 6.08534 5.2757 6.44956 4.78688C7.05819 3.97041 7.97845 3.50016 8.97491 3.49707C9.98487 3.50635 10.9116 3.96254 11.5318 4.78323C11.8988 5.2757 11.9922 5.75326 12.033 6.11466L12.0344 6.12732C12.1643 7.50095 11.4086 8.89201 10.6022 9.66095C10.143 10.0991 9.56722 10.3182 8.9915 10.3182ZM8.98532 4.90332H8.97941C8.42984 4.90501 7.91882 5.1691 7.5771 5.62726C7.42466 5.83201 7.37544 6.0331 7.34844 6.27245C7.25366 7.1086 7.78212 8.09832 8.35279 8.64395C8.72882 9.0031 9.25448 9.00282 9.63192 8.64338C10.2934 8.01254 10.7052 7.03576 10.6349 6.2657C10.6079 6.02945 10.5584 5.83004 10.4068 5.62698C10.0603 5.16826 9.54107 4.90332 8.98532 4.90332ZM12.346 11.8401C11.761 11.4554 11.076 11.2507 10.3758 11.2514H7.60437C6.90181 11.2514 6.22063 11.455 5.63451 11.8401C5.00788 12.2513 4.54719 12.8666 4.29688 13.5855C4.65058 13.9919 5.05505 14.3511 5.50035 14.6543C5.5552 13.9711 5.8896 13.3549 6.40626 13.0157C6.76199 12.7817 7.17859 12.6573 7.60437 12.6579H10.3758C10.8033 12.6579 11.2176 12.7817 11.5742 13.0157C12.0906 13.3549 12.425 13.9708 12.4799 14.6543C12.9252 14.3512 13.3297 13.9919 13.6833 13.5855C13.4327 12.8666 12.9726 12.251 12.346 11.8401Z" fill="#212830"/>
</g>
</g>
<defs>
<clipPath id="clip0_1344_220199">
<rect width="18" height="18" fill="white" transform="translate(-0.0078125 0.5)"/>
</clipPath>
</defs>
</svg>
