<svg width="25" height="25" viewBox="0 0 25 25" fill="none" xmlns="http://www.w3.org/2000/svg">
<g clip-path="url(#clip0_1554_229443)">
<path d="M11.0469 15.5C11.0469 16.5609 11.4683 17.5783 12.2184 18.3284C12.9686 19.0786 13.986 19.5 15.0469 19.5C16.1077 19.5 17.1252 19.0786 17.8753 18.3284C18.6254 17.5783 19.0469 16.5609 19.0469 15.5C19.0469 14.4391 18.6254 13.4217 17.8753 12.6716C17.1252 11.9214 16.1077 11.5 15.0469 11.5C13.986 11.5 12.9686 11.9214 12.2184 12.6716C11.4683 13.4217 11.0469 14.4391 11.0469 15.5Z" stroke="black" stroke-width="2" stroke-linecap="round" stroke-linejoin="round"/>
<path d="M18.5469 19L21.0469 21.5" stroke="black" stroke-width="2" stroke-linecap="round" stroke-linejoin="round"/>
<path d="M4.04688 6.5H20.0469" stroke="black" stroke-width="2" stroke-linecap="round" stroke-linejoin="round"/>
<path d="M4.04688 12.5H8.04688" stroke="black" stroke-width="2" stroke-linecap="round" stroke-linejoin="round"/>
<path d="M4.04688 18.5H8.04688" stroke="black" stroke-width="2" stroke-linecap="round" stroke-linejoin="round"/>
</g>
<defs>
<clipPath id="clip0_1554_229443">
<rect width="24" height="24" fill="white" transform="translate(0.046875 0.5)"/>
</clipPath>
</defs>
</svg>
