<svg width="16" height="16" viewBox="0 0 16 16" fill="none" xmlns="http://www.w3.org/2000/svg">
<g clip-path="url(#clip0_7029_5230)">
<path fill-rule="evenodd" clip-rule="evenodd" d="M9.00178 1.33301C9.90539 1.33308 10.7959 1.54925 11.5989 1.96347C12.402 2.37769 13.0944 2.97795 13.6183 3.71418C14.1422 4.4504 14.4824 5.30124 14.6106 6.1957C14.7388 7.09017 14.6513 8.00232 14.3553 8.85606C14.0592 9.70981 13.5634 10.4804 12.909 11.1035C12.2546 11.7266 11.4606 12.1842 10.5934 12.4381C9.72624 12.692 8.81089 12.7348 7.92377 12.563C7.03665 12.3911 6.20349 12.0097 5.49378 11.4503L3.05912 13.885C2.93338 14.0064 2.76498 14.0736 2.59018 14.0721C2.41539 14.0706 2.24818 14.0005 2.12457 13.8769C2.00097 13.7533 1.93085 13.5861 1.92934 13.4113C1.92782 13.2365 1.99501 13.0681 2.11645 12.9423L4.55112 10.5077C3.89245 9.67209 3.48234 8.66794 3.36772 7.61016C3.25309 6.55238 3.43859 5.48369 3.90297 4.5264C4.36735 3.56912 5.09186 2.76191 5.99358 2.19716C6.89531 1.63241 7.93781 1.33294 9.00178 1.33301ZM13.3351 6.99968C13.3351 5.8504 12.8786 4.7482 12.0659 3.93555C11.2533 3.12289 10.1511 2.66634 9.00178 2.66634C7.85251 2.66634 6.75031 3.12289 5.93766 3.93555C5.125 4.7482 4.66845 5.8504 4.66845 6.99968C4.66845 8.14895 5.125 9.25115 5.93766 10.0638C6.75031 10.8765 7.85251 11.333 9.00178 11.333C10.1511 11.333 11.2533 10.8765 12.0659 10.0638C12.8786 9.25115 13.3351 8.14895 13.3351 6.99968Z" fill="#41843A"/>
</g>
<defs>
<clipPath id="clip0_7029_5230">
<rect width="16" height="16" fill="white" transform="matrix(-1 0 0 1 16 0)"/>
</clipPath>
</defs>
</svg>
