<svg width="18" height="19" viewBox="0 0 18 19" fill="none" xmlns="http://www.w3.org/2000/svg">
<g clip-path="url(#clip0_1344_220209)">
<path d="M17.6115 16.074L15.4422 13.9048C15.8483 13.3077 16.0863 12.5874 16.0863 11.8125C16.0863 9.75547 14.4128 8.08203 12.3558 8.08203C10.2987 8.08203 8.625 9.75547 8.625 11.8125C8.625 13.8693 10.2984 15.543 12.3558 15.543C13.1306 15.543 13.8509 15.3051 14.448 14.899L16.6173 17.0682C16.7545 17.2055 16.9345 17.2741 17.1145 17.2741C17.2945 17.2741 17.4742 17.2055 17.6118 17.0682C17.8863 16.7937 17.8863 16.3488 17.6115 16.074ZM10.0312 11.8125C10.0312 10.5309 11.0738 9.48828 12.3558 9.48828C13.6374 9.48828 14.68 10.5312 14.68 11.8125C14.68 12.4515 14.4204 13.0312 14.0017 13.4517C14.0005 13.4528 13.9991 13.4533 13.998 13.4545C13.9969 13.4556 13.9963 13.457 13.9952 13.4581C13.5747 13.8772 12.9951 14.1365 12.3561 14.1365C11.0738 14.1365 10.0312 13.0939 10.0312 11.8125Z" fill="#212830"/>
<path d="M6.43808 9.30781C5.73242 9.30781 5.02705 9.03921 4.46483 8.50174C3.41717 7.50021 2.44742 5.72046 2.64233 4.00118C2.69323 3.55146 2.80939 2.95802 3.25827 2.35559C4.01989 1.33352 5.17133 0.745149 6.41698 0.741212C7.68795 0.740368 8.83967 1.32424 9.61648 2.35221C10.0685 2.95859 10.1846 3.55202 10.2352 4.00146L10.2366 4.01412C10.4012 5.75534 9.43873 7.52299 8.41217 8.50231C7.84911 9.03921 7.14373 9.30781 6.43808 9.30781ZM6.42992 2.14746C6.42711 2.14746 6.4243 2.14746 6.42177 2.14746C5.62302 2.14999 4.8808 2.53221 4.38608 3.19624C4.18752 3.46259 4.08711 3.74159 4.03986 4.15952C3.90627 5.33824 4.64173 6.72509 5.43711 7.48531C6.01733 8.03965 6.8608 8.03965 7.44186 7.48474C8.3638 6.60527 8.93698 5.23615 8.8377 4.15306C8.79017 3.73906 8.68977 3.46174 8.49205 3.19652C7.98889 2.53081 7.23711 2.14746 6.42992 2.14746Z" fill="#212830"/>
<path d="M12.3539 16.6676C11.8733 16.6676 11.4095 16.5951 10.9705 16.4643C10.7517 16.7005 10.4414 16.8513 10.0947 16.8513H2.77512C2.11531 16.8513 1.57841 16.3144 1.57841 15.6546V15.107C1.57841 14.0264 2.08241 13.0243 2.89353 12.4916C3.40203 12.1575 3.99294 11.9814 4.60269 11.9814H7.50716C7.50519 11.9249 7.49872 11.8695 7.49872 11.8124C7.49872 11.3841 7.56003 10.9709 7.66466 10.5752H4.60241C3.71759 10.5752 2.85978 10.8314 2.1215 11.3163C0.900875 12.1179 0.171875 13.5351 0.171875 15.1073V15.6549C0.171875 17.0904 1.33962 18.2578 2.77484 18.2578H10.0947C11.1735 18.2578 12.1008 17.598 12.4951 16.6612C12.4482 16.662 12.4015 16.6676 12.3539 16.6676Z" fill="#212830"/>
</g>
<defs>
<clipPath id="clip0_1344_220209">
<rect width="18" height="18" fill="white" transform="translate(-0.0078125 0.5)"/>
</clipPath>
</defs>
</svg>
