<svg width="21" height="20" viewBox="0 0 21 20" fill="none" xmlns="http://www.w3.org/2000/svg">
<g clip-path="url(#clip0_1992_267893)">
<path fill-rule="evenodd" clip-rule="evenodd" d="M18.0792 4.49805L11.2645 17.7589C10.9541 18.3628 10.0653 18.2777 9.87532 17.6258L8.01896 11.2572C7.96957 11.0877 7.86212 10.9411 7.71549 10.843L2.2017 7.1542C1.63734 6.77663 1.82382 5.90347 2.49319 5.7894L17.367 3.25459C17.9771 3.15057 18.4442 3.78787 18.1613 4.33836L18.0802 4.49611L18.0808 4.4969L18.0792 4.49805ZM4.60373 6.95369L14.4845 5.26976L8.56752 9.60564C8.56199 9.60187 8.55643 9.59812 8.55085 9.59439L4.60373 6.95369ZM9.4555 10.8174C9.45743 10.8238 9.45937 10.8303 9.46126 10.8368L10.79 15.3955L15.3698 6.48345L9.4555 10.8174Z" fill="black"/>
</g>
<defs>
<clipPath id="clip0_1992_267893">
<rect width="20" height="20" fill="white" transform="translate(0.734375)"/>
</clipPath>
</defs>
</svg>
