<svg width="16" height="17" viewBox="0 0 16 17" fill="none" xmlns="http://www.w3.org/2000/svg">
<path d="M7.00098 9.50012L14.001 2.50012M7.08604 9.71883L8.83811 14.2242C8.99246 14.6211 9.06964 14.8195 9.18084 14.8774C9.27724 14.9277 9.39207 14.9277 9.48853 14.8776C9.5998 14.8198 9.67721 14.6215 9.83202 14.2247L14.2256 2.96625C14.3653 2.60813 14.4352 2.42907 14.397 2.31465C14.3638 2.21528 14.2858 2.1373 14.1865 2.10411C14.072 2.06588 13.893 2.13576 13.5349 2.27552L2.27635 6.66908C1.87964 6.82389 1.68128 6.9013 1.62347 7.01257C1.57336 7.10903 1.57343 7.22386 1.62365 7.32026C1.68159 7.43146 1.88004 7.50864 2.27694 7.66299L6.78227 9.41506C6.86284 9.44639 6.90312 9.46206 6.93704 9.48625C6.96711 9.5077 6.9934 9.53399 7.01485 9.56406C7.03904 9.59798 7.05471 9.63826 7.08604 9.71883Z" stroke="#41843A" stroke-width="1.5" stroke-linecap="round" stroke-linejoin="round"/>
</svg>
