<svg width="18" height="19" viewBox="0 0 18 19" fill="none" xmlns="http://www.w3.org/2000/svg">
<path d="M8.0258 11.6034C7.95608 11.5331 7.87313 11.4773 7.78174 11.4392C7.69034 11.4011 7.59231 11.3815 7.4933 11.3815C7.39429 11.3815 7.29626 11.4011 7.20487 11.4392C7.11348 11.4773 7.03053 11.5331 6.9608 11.6034L5.2433 13.3284V3.88586C5.2433 3.68695 5.16429 3.49619 5.02363 3.35553C4.88298 3.21488 4.69222 3.13586 4.4933 3.13586C4.29439 3.13586 4.10363 3.21488 3.96297 3.35553C3.82232 3.49619 3.7433 3.68695 3.7433 3.88586V13.3284L2.0258 11.6034C1.88458 11.4621 1.69303 11.3828 1.4933 11.3828C1.29358 11.3828 1.10203 11.4621 0.960803 11.6034C0.819575 11.7446 0.740234 11.9361 0.740234 12.1359C0.740234 12.3356 0.819575 12.5271 0.960803 12.6684L3.9608 15.6684C4.03053 15.7387 4.11348 15.7945 4.20487 15.8325C4.29627 15.8706 4.39429 15.8902 4.4933 15.8902C4.59231 15.8902 4.69034 15.8706 4.78174 15.8325C4.87313 15.7945 4.95608 15.7387 5.0258 15.6684L8.0258 12.6684C8.0961 12.5986 8.15189 12.5157 8.18997 12.4243C8.22805 12.3329 8.24765 12.2349 8.24765 12.1359C8.24765 12.0369 8.22805 11.9388 8.18997 11.8474C8.15189 11.756 8.0961 11.6731 8.0258 11.6034Z" fill="black"/>
<path d="M14.9902 13.6359H11.2402C11.0413 13.6359 10.8506 13.5568 10.7099 13.4162C10.5693 13.2755 10.4902 13.0848 10.4902 12.8859C10.4902 12.687 10.5693 12.4962 10.7099 12.3555C10.8506 12.2149 11.0413 12.1359 11.2402 12.1359H14.9902C15.1891 12.1359 15.3799 12.2149 15.5206 12.3555C15.6612 12.4962 15.7402 12.687 15.7402 12.8859C15.7402 13.0848 15.6612 13.2755 15.5206 13.4162C15.3799 13.5568 15.1891 13.6359 14.9902 13.6359ZM14.9902 9.88586H9.74023C9.54132 9.88586 9.35056 9.80685 9.2099 9.66619C9.06925 9.52554 8.99023 9.33478 8.99023 9.13586C8.99023 8.93695 9.06925 8.74619 9.2099 8.60553C9.35056 8.46488 9.54132 8.38586 9.74023 8.38586H14.9902C15.1891 8.38586 15.3799 8.46488 15.5206 8.60553C15.6612 8.74619 15.7402 8.93695 15.7402 9.13586C15.7402 9.33478 15.6612 9.52554 15.5206 9.66619C15.3799 9.80685 15.1891 9.88586 14.9902 9.88586ZM14.9902 6.13586H7.49023C7.29132 6.13586 7.10056 6.05685 6.9599 5.91619C6.81925 5.77554 6.74023 5.58478 6.74023 5.38586C6.74023 5.18695 6.81925 4.99619 6.9599 4.85553C7.10056 4.71488 7.29132 4.63586 7.49023 4.63586H14.9902C15.1891 4.63586 15.3799 4.71488 15.5206 4.85553C15.6612 4.99619 15.7402 5.18695 15.7402 5.38586C15.7402 5.58478 15.6612 5.77554 15.5206 5.91619C15.3799 6.05685 15.1891 6.13586 14.9902 6.13586Z" fill="black"/>
</svg>
