<svg width="20" height="21" viewBox="0 0 20 21" fill="none" xmlns="http://www.w3.org/2000/svg">
<path d="M9.9974 11.3516C10.4576 11.3516 10.8307 10.9785 10.8307 10.5182C10.8307 10.058 10.4576 9.6849 9.9974 9.6849C9.53716 9.6849 9.16406 10.058 9.16406 10.5182C9.16406 10.9785 9.53716 11.3516 9.9974 11.3516Z" fill="#212830"/>
<path d="M9.9974 5.51823C10.4576 5.51823 10.8307 5.14513 10.8307 4.6849C10.8307 4.22466 10.4576 3.85156 9.9974 3.85156C9.53716 3.85156 9.16406 4.22466 9.16406 4.6849C9.16406 5.14513 9.53716 5.51823 9.9974 5.51823Z" fill="#212830"/>
<path d="M9.9974 17.1849C10.4576 17.1849 10.8307 16.8118 10.8307 16.3516C10.8307 15.8913 10.4576 15.5182 9.9974 15.5182C9.53716 15.5182 9.16406 15.8913 9.16406 16.3516C9.16406 16.8118 9.53716 17.1849 9.9974 17.1849Z" fill="#212830"/>
<path d="M9.9974 11.3516C10.4576 11.3516 10.8307 10.9785 10.8307 10.5182C10.8307 10.058 10.4576 9.6849 9.9974 9.6849C9.53716 9.6849 9.16406 10.058 9.16406 10.5182C9.16406 10.9785 9.53716 11.3516 9.9974 11.3516Z" stroke="#212830" stroke-width="2" stroke-linecap="round" stroke-linejoin="round"/>
<path d="M9.9974 5.51823C10.4576 5.51823 10.8307 5.14513 10.8307 4.6849C10.8307 4.22466 10.4576 3.85156 9.9974 3.85156C9.53716 3.85156 9.16406 4.22466 9.16406 4.6849C9.16406 5.14513 9.53716 5.51823 9.9974 5.51823Z" stroke="#212830" stroke-width="2" stroke-linecap="round" stroke-linejoin="round"/>
<path d="M9.9974 17.1849C10.4576 17.1849 10.8307 16.8118 10.8307 16.3516C10.8307 15.8913 10.4576 15.5182 9.9974 15.5182C9.53716 15.5182 9.16406 15.8913 9.16406 16.3516C9.16406 16.8118 9.53716 17.1849 9.9974 17.1849Z" stroke="#212830" stroke-width="2" stroke-linecap="round" stroke-linejoin="round"/>
</svg>
