<svg width="20" height="21" viewBox="0 0 20 21" fill="none" xmlns="http://www.w3.org/2000/svg">
<path d="M18.0475 9.25217L17.2309 12.7355C16.5309 15.7438 15.1475 16.9605 12.5475 16.7105C12.1309 16.6772 11.6809 16.6022 11.1975 16.4855L9.79755 16.1522C6.32255 15.3272 5.24755 13.6105 6.06421 10.1272L6.88088 6.6355C7.04755 5.92717 7.24755 5.3105 7.49755 4.80217C8.47255 2.7855 10.1309 2.24384 12.9142 2.90217L14.3059 3.22717C17.7975 4.04384 18.8642 5.76884 18.0475 9.25217Z" stroke="black" stroke-width="1.5" stroke-linecap="round" stroke-linejoin="round"/>
<path d="M12.5513 16.7111C12.0346 17.0611 11.3846 17.3527 10.5929 17.6111L9.27626 18.0444C5.96793 19.1111 4.22626 18.2194 3.15126 14.9111L2.08459 11.6194C1.01793 8.31107 1.90126 6.56107 5.20959 5.4944L6.52626 5.06107C6.86793 4.95273 7.19293 4.86107 7.50126 4.80273C7.25126 5.31107 7.05126 5.92773 6.88459 6.63607L6.06793 10.1277C5.25126 13.6111 6.32626 15.3277 9.80126 16.1527L11.2013 16.4861C11.6846 16.6027 12.1346 16.6777 12.5513 16.7111Z" stroke="black" stroke-width="1.5" stroke-linecap="round" stroke-linejoin="round"/>
<path d="M10.5312 7.66016L14.5729 8.68516" stroke="black" stroke-width="1.5" stroke-linecap="round" stroke-linejoin="round"/>
<path d="M9.71094 10.8867L12.1276 11.5034" stroke="black" stroke-width="1.5" stroke-linecap="round" stroke-linejoin="round"/>
</svg>
