<svg width="20" height="20" viewBox="0 0 20 20" fill="none" xmlns="http://www.w3.org/2000/svg">
<path d="M13.3307 5.83333C13.3307 5.05836 13.3307 4.67087 13.2455 4.35295C13.0144 3.49022 12.3405 2.81635 11.4778 2.58519C11.1599 2.5 10.7724 2.5 9.9974 2.5C9.22242 2.5 8.83493 2.5 8.51702 2.58519C7.65429 2.81635 6.98042 3.49022 6.74925 4.35295C6.66406 4.67087 6.66406 5.05836 6.66406 5.83333M4.33073 17.5H15.6641C16.5975 17.5 17.0642 17.5 17.4207 17.3183C17.7343 17.1586 17.9893 16.9036 18.1491 16.59C18.3307 16.2335 18.3307 15.7668 18.3307 14.8333V8.5C18.3307 7.56658 18.3307 7.09987 18.1491 6.74335C17.9893 6.42975 17.7343 6.17478 17.4207 6.01499C17.0642 5.83333 16.5975 5.83333 15.6641 5.83333H4.33073C3.39731 5.83333 2.9306 5.83333 2.57408 6.01499C2.26047 6.17478 2.00551 6.42975 1.84572 6.74335C1.66406 7.09987 1.66406 7.56658 1.66406 8.5V14.8333C1.66406 15.7668 1.66406 16.2335 1.84572 16.59C2.00551 16.9036 2.26047 17.1586 2.57408 17.3183C2.9306 17.5 3.39731 17.5 4.33073 17.5Z" stroke="black" stroke-width="2" stroke-linecap="round" stroke-linejoin="round"/>
</svg>
