<svg width="20" height="21" viewBox="0 0 20 21" fill="none" xmlns="http://www.w3.org/2000/svg">
<path d="M18.3327 10.1289H13.3327L11.666 12.6289H8.33268L6.66602 10.1289H1.66602" stroke="black" stroke-width="2" stroke-linecap="round" stroke-linejoin="round"/>
<path d="M4.54102 4.38716L1.66602 10.1288V15.1288C1.66602 15.5709 1.84161 15.9948 2.15417 16.3073C2.46673 16.6199 2.89065 16.7955 3.33268 16.7955H16.666C17.108 16.7955 17.532 16.6199 17.8445 16.3073C18.1571 15.9948 18.3327 15.5709 18.3327 15.1288V10.1288L15.4577 4.38716C15.3197 4.10948 15.107 3.8758 14.8435 3.71239C14.58 3.54898 14.2761 3.46232 13.966 3.46216H6.03268C5.72261 3.46232 5.41874 3.54898 5.15522 3.71239C4.8917 3.8758 4.679 4.10948 4.54102 4.38716Z" stroke="black" stroke-width="2" stroke-linecap="round" stroke-linejoin="round"/>
</svg>
