<svg width="20" height="21" viewBox="0 0 20 21" fill="none" xmlns="http://www.w3.org/2000/svg">
<g clip-path="url(#clip0_7004_1641)">
<path d="M11.1728 1.86224C14.1873 3.20029 16.4724 4.95778 17.6537 5.97349C18.2507 6.48682 18.5836 7.22561 18.6248 8.01186C18.6814 9.09161 18.75 10.7812 18.75 12.629C18.75 14.0505 18.7094 15.4232 18.6649 16.5011C18.6133 17.7515 17.619 18.7378 16.3682 18.7805C14.9264 18.8297 12.787 18.879 10 18.879C7.213 18.879 5.07362 18.8297 3.6318 18.7805C2.38102 18.7378 1.38677 17.7516 1.33512 16.5011C1.2906 15.4233 1.25 14.0505 1.25 12.629C1.25 10.7812 1.31862 9.09157 1.37524 8.01182C1.41648 7.22557 1.74934 6.48682 2.34634 5.97353C3.52763 4.95782 5.81275 3.2003 8.82721 1.86224C9.57358 1.53095 10.4265 1.53095 11.1728 1.86224Z" stroke="black" stroke-width="2" stroke-linejoin="round"/>
<path d="M12.9086 18.8601C12.0354 18.8717 11.0649 18.8789 9.99972 18.8789C8.93451 18.8789 7.96392 18.8717 7.09076 18.8601C7.08584 18.1494 7.08301 17.3733 7.08301 16.811C7.08301 15.7079 7.10655 13.826 7.12272 12.6604C7.13105 12.0636 7.56117 11.5577 8.15438 11.4909C8.67055 11.4327 9.32934 11.3789 9.99967 11.3789C10.67 11.3789 11.3288 11.4327 11.845 11.4909C12.4382 11.5577 12.8683 12.0636 12.8766 12.6604C12.8928 13.826 12.9163 15.7079 12.9163 16.811C12.9163 17.3733 12.9135 18.1494 12.9086 18.8601Z" stroke="black" stroke-width="2" stroke-linejoin="round"/>
</g>
<defs>
<clipPath id="clip0_7004_1641">
<rect width="20" height="20" fill="white" transform="translate(0 0.128906)"/>
</clipPath>
</defs>
</svg>
