<svg width="20" height="21" viewBox="0 0 20 21" fill="none" xmlns="http://www.w3.org/2000/svg">
<path d="M11.6758 13.4571L3.3425 13.4671C3.12149 13.4671 2.90952 13.5549 2.75324 13.7112C2.59696 13.8675 2.50917 14.0794 2.50917 14.3005C2.50917 14.5215 2.59696 14.7334 2.75324 14.8897C2.90952 15.046 3.12149 15.1338 3.3425 15.1338L11.6758 15.1238C11.8968 15.1238 12.1088 15.036 12.2651 14.8797C12.4214 14.7234 12.5092 14.5115 12.5092 14.2905C12.5092 14.0694 12.4214 13.8575 12.2651 13.7012C12.1088 13.5449 11.8968 13.4571 11.6758 13.4571ZM11.6667 9.29046L3.33333 9.30046C3.11232 9.30046 2.90036 9.38825 2.74408 9.54453C2.5878 9.70081 2.5 9.91277 2.5 10.1338C2.5 10.3548 2.5878 10.5668 2.74408 10.723C2.90036 10.8793 3.11232 10.9671 3.33333 10.9671L11.6667 10.9571C11.8877 10.9571 12.0996 10.8693 12.2559 10.713C12.4122 10.5568 12.5 10.3448 12.5 10.1238C12.5 9.90278 12.4122 9.69081 12.2559 9.53453C12.0996 9.37825 11.8877 9.29046 11.6667 9.29046ZM11.6667 5.12379L3.33333 5.13379C3.11232 5.13379 2.90036 5.22159 2.74408 5.37787C2.5878 5.53415 2.5 5.74611 2.5 5.96712C2.5 6.18814 2.5878 6.4001 2.74408 6.55638C2.90036 6.71266 3.11232 6.80046 3.33333 6.80046L11.6667 6.79045C11.8877 6.79045 12.0996 6.70266 12.2559 6.54638C12.4122 6.3901 12.5 6.17813 12.5 5.95712C12.5 5.73611 12.4122 5.52415 12.2559 5.36787C12.0996 5.21159 11.8877 5.12379 11.6667 5.12379ZM17.4875 11.7955C17.4868 11.9603 17.4373 12.1212 17.3451 12.2578C17.253 12.3945 17.1224 12.5007 16.9699 12.5632C16.8173 12.6256 16.6497 12.6414 16.4882 12.6086C16.3267 12.5758 16.1786 12.4958 16.0625 12.3788L14.4042 10.7046C14.2486 10.5477 14.1617 10.3354 14.1627 10.1144C14.1636 9.89345 14.2523 9.6819 14.4092 9.52629L16.0833 7.86796C16.2005 7.75314 16.3489 7.67544 16.51 7.6446C16.6711 7.61376 16.8377 7.63115 16.989 7.69459C17.1402 7.75803 17.2694 7.8647 17.3603 8.00124C17.4512 8.13777 17.4998 8.29809 17.5 8.46212L17.4875 11.7955Z" fill="black"/>
</svg>
